<mxfile host="65bd71144e">
    <diagram id="QxZ3nonRwbrlkTWgug7E" name="Page-1">
        <mxGraphModel dx="1726" dy="862" grid="1" gridSize="10" guides="1" tooltips="1" connect="1" arrows="1" fold="1" page="1" pageScale="1" pageWidth="1600" pageHeight="900" math="0" shadow="0">
            <root>
                <mxCell id="0"/>
                <mxCell id="1" parent="0"/>
                <mxCell id="aQ7Q8ipnBTK6U1940LWw-1" value="c0" style="ellipse;whiteSpace=wrap;html=1;aspect=fixed;fillColor=#dae8fc;strokeColor=#6c8ebf;strokeWidth=3;fontSize=30;fontFamily=Source Sans Pro;fontSource=https%3A%2F%2Ffonts.googleapis.com%2Fcss%3Ffamily%3DSource%2BSans%2BPro;fontColor=#808080;" parent="1" vertex="1">
                    <mxGeometry x="695" y="800" width="80" height="80" as="geometry"/>
                </mxCell>
                <mxCell id="aQ7Q8ipnBTK6U1940LWw-14" style="edgeStyle=orthogonalEdgeStyle;rounded=1;orthogonalLoop=1;jettySize=auto;html=1;exitX=0.5;exitY=1;exitDx=0;exitDy=0;entryX=0.5;entryY=0;entryDx=0;entryDy=0;strokeColor=#999999;strokeWidth=5;endArrow=none;endFill=0;" parent="1" source="aQ7Q8ipnBTK6U1940LWw-2" target="aQ7Q8ipnBTK6U1940LWw-1" edge="1">
                    <mxGeometry relative="1" as="geometry"/>
                </mxCell>
                <mxCell id="aQ7Q8ipnBTK6U1940LWw-2" value="c1" style="ellipse;whiteSpace=wrap;html=1;aspect=fixed;fillColor=#dae8fc;strokeColor=#6c8ebf;strokeWidth=3;fontSize=30;fontFamily=Source Sans Pro;fontSource=https%3A%2F%2Ffonts.googleapis.com%2Fcss%3Ffamily%3DSource%2BSans%2BPro;fontColor=#808080;" parent="1" vertex="1">
                    <mxGeometry x="695" y="680" width="80" height="80" as="geometry"/>
                </mxCell>
                <mxCell id="aQ7Q8ipnBTK6U1940LWw-15" style="edgeStyle=orthogonalEdgeStyle;rounded=1;orthogonalLoop=1;jettySize=auto;html=1;exitX=0.5;exitY=1;exitDx=0;exitDy=0;entryX=0.5;entryY=0;entryDx=0;entryDy=0;strokeColor=#999999;strokeWidth=5;endArrow=none;endFill=0;" parent="1" source="aQ7Q8ipnBTK6U1940LWw-3" target="aQ7Q8ipnBTK6U1940LWw-2" edge="1">
                    <mxGeometry relative="1" as="geometry"/>
                </mxCell>
                <mxCell id="aQ7Q8ipnBTK6U1940LWw-3" value="&lt;span style=&quot;color: rgb(128, 128, 128); font-family: &amp;quot;Source Sans Pro&amp;quot;; font-size: 30px;&quot;&gt;c2&lt;/span&gt;" style="ellipse;whiteSpace=wrap;html=1;aspect=fixed;fillColor=#dae8fc;strokeColor=#6c8ebf;strokeWidth=3;" parent="1" vertex="1">
                    <mxGeometry x="695" y="560" width="80" height="80" as="geometry"/>
                </mxCell>
                <mxCell id="aQ7Q8ipnBTK6U1940LWw-16" style="edgeStyle=orthogonalEdgeStyle;rounded=1;orthogonalLoop=1;jettySize=auto;html=1;exitX=0.5;exitY=1;exitDx=0;exitDy=0;entryX=0.5;entryY=0;entryDx=0;entryDy=0;strokeColor=#999999;strokeWidth=5;endArrow=none;endFill=0;" parent="1" source="aQ7Q8ipnBTK6U1940LWw-4" target="aQ7Q8ipnBTK6U1940LWw-3" edge="1">
                    <mxGeometry relative="1" as="geometry"/>
                </mxCell>
                <mxCell id="aQ7Q8ipnBTK6U1940LWw-4" value="&lt;span style=&quot;color: rgb(128, 128, 128); font-family: &amp;quot;Source Sans Pro&amp;quot;; font-size: 30px;&quot;&gt;c4&lt;/span&gt;" style="ellipse;whiteSpace=wrap;html=1;aspect=fixed;fillColor=#dae8fc;strokeColor=#6c8ebf;strokeWidth=3;" parent="1" vertex="1">
                    <mxGeometry x="695" y="440" width="80" height="80" as="geometry"/>
                </mxCell>
                <mxCell id="aQ7Q8ipnBTK6U1940LWw-18" style="edgeStyle=orthogonalEdgeStyle;curved=1;orthogonalLoop=1;jettySize=auto;html=1;exitX=0.5;exitY=1;exitDx=0;exitDy=0;entryX=0.5;entryY=0;entryDx=0;entryDy=0;strokeColor=#999999;strokeWidth=5;endArrow=none;endFill=0;" parent="1" source="aQ7Q8ipnBTK6U1940LWw-5" target="aQ7Q8ipnBTK6U1940LWw-6" edge="1">
                    <mxGeometry relative="1" as="geometry"/>
                </mxCell>
                <mxCell id="aQ7Q8ipnBTK6U1940LWw-5" value="&lt;span style=&quot;color: rgb(128, 128, 128); font-family: &amp;quot;Source Sans Pro&amp;quot;; font-size: 30px;&quot;&gt;c5&lt;/span&gt;" style="ellipse;whiteSpace=wrap;html=1;aspect=fixed;fillColor=#dae8fc;strokeColor=#6c8ebf;strokeWidth=3;" parent="1" vertex="1">
                    <mxGeometry x="895" y="320" width="80" height="80" as="geometry"/>
                </mxCell>
                <mxCell id="aQ7Q8ipnBTK6U1940LWw-17" style="edgeStyle=orthogonalEdgeStyle;orthogonalLoop=1;jettySize=auto;html=1;exitX=0.5;exitY=1;exitDx=0;exitDy=0;entryX=1;entryY=0.5;entryDx=0;entryDy=0;strokeColor=#999999;strokeWidth=5;curved=1;endArrow=none;endFill=0;" parent="1" source="aQ7Q8ipnBTK6U1940LWw-6" target="aQ7Q8ipnBTK6U1940LWw-3" edge="1">
                    <mxGeometry relative="1" as="geometry"/>
                </mxCell>
                <mxCell id="aQ7Q8ipnBTK6U1940LWw-6" value="&lt;span style=&quot;color: rgb(128, 128, 128); font-family: &amp;quot;Source Sans Pro&amp;quot;; font-size: 30px;&quot;&gt;c3&lt;/span&gt;" style="ellipse;whiteSpace=wrap;html=1;aspect=fixed;fillColor=#dae8fc;strokeColor=#6c8ebf;strokeWidth=3;" parent="1" vertex="1">
                    <mxGeometry x="895" y="440" width="80" height="80" as="geometry"/>
                </mxCell>
                <mxCell id="aQ7Q8ipnBTK6U1940LWw-19" style="edgeStyle=orthogonalEdgeStyle;curved=1;orthogonalLoop=1;jettySize=auto;html=1;exitX=0.5;exitY=1;exitDx=0;exitDy=0;entryX=0.5;entryY=0;entryDx=0;entryDy=0;strokeColor=#999999;strokeWidth=5;endArrow=none;endFill=0;" parent="1" source="aQ7Q8ipnBTK6U1940LWw-10" target="aQ7Q8ipnBTK6U1940LWw-5" edge="1">
                    <mxGeometry relative="1" as="geometry"/>
                </mxCell>
                <mxCell id="aQ7Q8ipnBTK6U1940LWw-10" value="&lt;span style=&quot;color: rgb(128, 128, 128); font-family: &amp;quot;Source Sans Pro&amp;quot;; font-size: 30px;&quot;&gt;c6&lt;/span&gt;" style="ellipse;whiteSpace=wrap;html=1;aspect=fixed;fillColor=#dae8fc;strokeColor=#6c8ebf;strokeWidth=3;" parent="1" vertex="1">
                    <mxGeometry x="895" y="200" width="80" height="80" as="geometry"/>
                </mxCell>
                <mxCell id="aQ7Q8ipnBTK6U1940LWw-27" style="edgeStyle=orthogonalEdgeStyle;curved=1;orthogonalLoop=1;jettySize=auto;html=1;exitX=0.5;exitY=1;exitDx=0;exitDy=0;strokeColor=#999999;strokeWidth=5;endArrow=none;endFill=0;" parent="1" source="aQ7Q8ipnBTK6U1940LWw-11" target="aQ7Q8ipnBTK6U1940LWw-4" edge="1">
                    <mxGeometry relative="1" as="geometry"/>
                </mxCell>
                <mxCell id="aQ7Q8ipnBTK6U1940LWw-11" value="&lt;span style=&quot;color: rgb(128, 128, 128); font-family: &amp;quot;Source Sans Pro&amp;quot;; font-size: 30px;&quot;&gt;c7&lt;/span&gt;" style="ellipse;whiteSpace=wrap;html=1;aspect=fixed;fillColor=#dae8fc;strokeColor=#6c8ebf;strokeWidth=3;" parent="1" vertex="1">
                    <mxGeometry x="695" y="200" width="80" height="80" as="geometry"/>
                </mxCell>
                <mxCell id="aQ7Q8ipnBTK6U1940LWw-25" style="edgeStyle=orthogonalEdgeStyle;curved=1;orthogonalLoop=1;jettySize=auto;html=1;exitX=0.5;exitY=1;exitDx=0;exitDy=0;entryX=0.5;entryY=0;entryDx=0;entryDy=0;strokeColor=#999999;strokeWidth=5;endArrow=none;endFill=0;" parent="1" source="aQ7Q8ipnBTK6U1940LWw-12" target="aQ7Q8ipnBTK6U1940LWw-11" edge="1">
                    <mxGeometry relative="1" as="geometry"/>
                </mxCell>
                <mxCell id="aQ7Q8ipnBTK6U1940LWw-26" style="edgeStyle=orthogonalEdgeStyle;curved=1;orthogonalLoop=1;jettySize=auto;html=1;exitX=1;exitY=0.5;exitDx=0;exitDy=0;strokeColor=#999999;strokeWidth=5;endArrow=none;endFill=0;" parent="1" source="aQ7Q8ipnBTK6U1940LWw-12" target="aQ7Q8ipnBTK6U1940LWw-10" edge="1">
                    <mxGeometry relative="1" as="geometry"/>
                </mxCell>
                <mxCell id="aQ7Q8ipnBTK6U1940LWw-12" value="&lt;span style=&quot;color: rgb(128, 128, 128); font-family: &amp;quot;Source Sans Pro&amp;quot;; font-size: 30px;&quot;&gt;c8&lt;/span&gt;" style="ellipse;whiteSpace=wrap;html=1;aspect=fixed;fillColor=#dae8fc;strokeColor=#6c8ebf;strokeWidth=3;" parent="1" vertex="1">
                    <mxGeometry x="695" y="80" width="80" height="80" as="geometry"/>
                </mxCell>
                <mxCell id="aQ7Q8ipnBTK6U1940LWw-30" style="edgeStyle=orthogonalEdgeStyle;curved=1;orthogonalLoop=1;jettySize=auto;html=1;strokeColor=#d6b656;strokeWidth=5;fontFamily=Source Sans Pro;fontSource=https%3A%2F%2Ffonts.googleapis.com%2Fcss%3Ffamily%3DSource%2BSans%2BPro;fontSize=30;fontColor=#000000;fillColor=#fff2cc;" parent="1" source="aQ7Q8ipnBTK6U1940LWw-29" target="aQ7Q8ipnBTK6U1940LWw-2" edge="1">
                    <mxGeometry relative="1" as="geometry"/>
                </mxCell>
                <mxCell id="aQ7Q8ipnBTK6U1940LWw-29" value="commit" style="text;html=1;align=center;verticalAlign=middle;resizable=0;points=[];autosize=1;strokeColor=none;fillColor=none;fontSize=30;fontFamily=Source Sans Pro;fontColor=#000000;" parent="1" vertex="1">
                    <mxGeometry x="465" y="695" width="120" height="50" as="geometry"/>
                </mxCell>
                <mxCell id="aQ7Q8ipnBTK6U1940LWw-37" value="working tree snapshot" style="group;labelPosition=center;verticalLabelPosition=top;align=center;verticalAlign=bottom;fontFamily=Source Sans Pro;fontSource=https%3A%2F%2Ffonts.googleapis.com%2Fcss%3Ffamily%3DSource%2BSans%2BPro;fontSize=30;" parent="1" vertex="1" connectable="0">
                    <mxGeometry x="878" y="695" width="230" height="150" as="geometry"/>
                </mxCell>
                <mxCell id="aQ7Q8ipnBTK6U1940LWw-36" value="" style="html=1;verticalLabelPosition=bottom;align=center;labelBackgroundColor=#ffffff;verticalAlign=top;strokeWidth=4;strokeColor=#666666;shadow=0;dashed=0;shape=mxgraph.ios7.icons.folder;fontFamily=Source Sans Pro;fontSource=https%3A%2F%2Ffonts.googleapis.com%2Fcss%3Ffamily%3DSource%2BSans%2BPro;fontSize=30;fontColor=#333333;fillColor=none;" parent="aQ7Q8ipnBTK6U1940LWw-37" vertex="1">
                    <mxGeometry width="230" height="150" as="geometry"/>
                </mxCell>
                <mxCell id="aQ7Q8ipnBTK6U1940LWw-32" value="" style="verticalLabelPosition=bottom;html=1;verticalAlign=top;align=center;strokeColor=#b85450;fillColor=#f8cecc;shape=mxgraph.azure.script_file;pointerEvents=1;strokeWidth=3;fontFamily=Source Sans Pro;fontSource=https%3A%2F%2Ffonts.googleapis.com%2Fcss%3Ffamily%3DSource%2BSans%2BPro;fontSize=30;" parent="aQ7Q8ipnBTK6U1940LWw-37" vertex="1">
                    <mxGeometry x="61.25" y="90" width="47.5" height="50" as="geometry"/>
                </mxCell>
                <mxCell id="aQ7Q8ipnBTK6U1940LWw-33" value="" style="verticalLabelPosition=bottom;html=1;verticalAlign=top;align=center;strokeColor=#b85450;fillColor=#f8cecc;shape=mxgraph.azure.code_file;pointerEvents=1;strokeWidth=3;fontFamily=Source Sans Pro;fontSource=https%3A%2F%2Ffonts.googleapis.com%2Fcss%3Ffamily%3DSource%2BSans%2BPro;fontSize=30;" parent="aQ7Q8ipnBTK6U1940LWw-37" vertex="1">
                    <mxGeometry x="91.25" y="30" width="47.5" height="50" as="geometry"/>
                </mxCell>
                <mxCell id="aQ7Q8ipnBTK6U1940LWw-34" value="" style="verticalLabelPosition=bottom;html=1;verticalAlign=top;align=center;strokeColor=#b85450;fillColor=#f8cecc;shape=mxgraph.azure.file;pointerEvents=1;strokeWidth=3;fontFamily=Source Sans Pro;fontSource=https%3A%2F%2Ffonts.googleapis.com%2Fcss%3Ffamily%3DSource%2BSans%2BPro;fontSize=30;" parent="aQ7Q8ipnBTK6U1940LWw-37" vertex="1">
                    <mxGeometry x="121.25" y="90" width="47.5" height="50" as="geometry"/>
                </mxCell>
                <mxCell id="aQ7Q8ipnBTK6U1940LWw-38" style="edgeStyle=orthogonalEdgeStyle;curved=1;orthogonalLoop=1;jettySize=auto;html=1;entryX=1;entryY=0.5;entryDx=0;entryDy=0;strokeColor=#b85450;strokeWidth=5;fontFamily=Source Sans Pro;fontSource=https%3A%2F%2Ffonts.googleapis.com%2Fcss%3Ffamily%3DSource%2BSans%2BPro;fontSize=30;fontColor=#000000;fillColor=#f8cecc;" parent="1" source="aQ7Q8ipnBTK6U1940LWw-36" target="aQ7Q8ipnBTK6U1940LWw-2" edge="1">
                    <mxGeometry relative="1" as="geometry"/>
                </mxCell>
            </root>
        </mxGraphModel>
    </diagram>
</mxfile>